<svg width="1924" height="352" viewBox="0 0 1924 352" fill="none" xmlns="http://www.w3.org/2000/svg">
<path fill-rule="evenodd" clip-rule="evenodd" d="M330.185 178.008C333.12 178.008 335.346 179.02 336.965 180.943C338.888 182.866 339.9 185.194 339.9 187.724V310.174C339.9 314.121 338.483 316.954 335.548 318.978C320.571 329.098 304.177 336.992 286.265 342.861C268.656 348.427 250.845 351.159 232.629 351.159C199.132 351.159 169.077 343.671 142.36 328.693C116.048 313.412 95.2015 292.464 79.9205 265.748C68.4333 245.335 61.3512 222.838 58.6743 198.349H10.9031C5.31401 198.349 0.783203 193.819 0.783203 188.229C0.783203 182.64 5.31402 178.11 10.9031 178.11H57.4698C57.4595 177.235 57.4543 176.358 57.4543 175.479C57.4543 172.963 57.4966 170.467 57.5811 167.99H10.9031C5.31401 167.99 0.783203 163.459 0.783203 157.87C0.783203 152.281 5.31402 147.75 10.9031 147.75H59.269C62.3159 125.167 69.1997 104.333 79.9205 85.2093C95.3027 58.6952 116.048 37.8483 142.461 22.9721C169.076 7.6911 199.132 0 232.629 0C250.845 0 268.049 2.22637 284.342 6.78031C300.938 11.0307 315.713 17.5074 328.768 26.3117C331.703 28.2344 333.12 31.068 333.12 34.6099C333.12 37.5447 332.006 39.9735 329.679 41.8963C327.756 43.5154 325.732 44.325 323.809 44.325C322.19 44.325 320.065 43.7178 317.434 42.4022C290.11 27.1212 261.876 19.4301 232.528 19.4301C202.573 19.4301 175.958 26.1093 152.581 39.4675C129.305 52.8257 110.887 71.3451 97.529 95.1268C88.6679 111.269 82.8374 128.81 80.006 147.75H128.294C133.883 147.75 138.413 152.281 138.413 157.87C138.413 163.459 133.883 167.99 128.294 167.99H78.1397C78.045 170.498 77.9977 173.028 77.9977 175.58C77.9977 176.425 78.0029 177.269 78.0133 178.11H128.294C133.883 178.11 138.413 182.64 138.413 188.229C138.413 193.819 133.883 198.349 128.294 198.349H79.323C81.8265 219.264 87.8815 238.533 97.529 256.033C110.887 279.814 129.204 298.334 152.682 311.591C176.059 324.949 202.776 331.628 232.629 331.628C247.607 331.628 262.685 329.402 277.966 324.848C293.551 319.99 307.719 313.615 320.368 305.822V198.349H227.468C221.879 198.349 217.348 193.819 217.348 188.229C217.348 182.64 221.879 178.11 227.468 178.11H325.631L325.662 178.11H330.185V178.008ZM1902.8 263.654C1916.62 237.305 1923.53 207.26 1923.53 173.52C1923.53 139.78 1916.62 109.735 1902.8 83.386C1889.31 57.0367 1870.35 36.632 1845.93 22.172C1821.51 7.39066 1793.71 0 1762.54 0C1731.37 0 1703.58 7.39066 1679.15 22.172C1654.73 36.632 1635.61 57.0367 1621.8 83.386C1608.3 109.735 1601.55 139.78 1601.55 173.52C1601.55 207.26 1608.3 237.305 1621.8 263.654C1635.61 290.003 1654.73 310.569 1679.15 325.35C1703.58 339.81 1731.37 347.04 1762.54 347.04C1793.71 347.04 1821.51 339.81 1845.93 325.35C1870.35 310.569 1889.31 290.003 1902.8 263.654ZM1885.45 93.026C1897.34 116.483 1903.28 143.315 1903.28 173.52C1903.28 203.725 1897.34 230.557 1885.45 254.014C1873.56 277.471 1856.85 295.627 1835.32 308.48C1814.11 321.333 1789.85 327.76 1762.54 327.76C1735.23 327.76 1710.81 321.333 1689.28 308.48C1668.07 295.627 1651.52 277.471 1639.63 254.014C1627.74 230.557 1621.8 203.725 1621.8 173.52C1621.8 143.315 1627.74 116.483 1639.63 93.026C1651.52 69.5687 1668.07 51.4133 1689.28 38.56C1710.81 25.7067 1735.23 19.28 1762.54 19.28C1789.85 19.28 1814.11 25.7067 1835.32 38.56C1856.85 51.4133 1873.56 69.5687 1885.45 93.026ZM666.52 333.062C666.52 331.455 666.36 330.17 666.04 329.206L536.38 10.122C534.77 5.94463 531.56 3.85596 526.74 3.85596C524.49 3.85596 522.56 4.33796 520.95 5.30195C519.67 5.94462 518.54 7.5513 517.58 10.122L387.922 329.206C387.279 331.134 387.119 332.741 387.44 334.026C387.761 336.275 388.725 338.203 390.332 339.81C392.26 341.417 394.67 342.22 397.562 342.22C401.739 342.22 404.631 340.131 406.238 335.954L445.28 237.626H606.663L646.76 335.954C647.4 337.882 648.52 339.489 650.13 340.774C652.06 341.738 654.15 342.22 656.4 342.22C659.29 342.22 661.7 341.417 663.63 339.81C665.55 338.203 666.52 335.954 666.52 333.062ZM599.04 218.346H452.992L525.29 36.632L599.04 218.346ZM925.07 325.832C923.14 323.904 920.89 322.94 918.32 322.94H752.03V14.46C752.03 11.8893 751.07 9.63998 749.14 7.71198C747.21 5.78397 744.8 4.81995 741.91 4.81995C739.02 4.81995 736.61 5.78397 734.68 7.71198C732.75 9.63998 731.79 11.8893 731.79 14.46V332.58C731.79 335.151 732.59 337.4 734.2 339.328C736.13 341.256 738.54 342.22 741.43 342.22H918.32C920.89 342.22 923.14 341.417 925.07 339.81C927 337.882 927.96 335.472 927.96 332.58C927.96 330.009 927 327.76 925.07 325.832ZM1003.86 332.098C1003.54 334.99 1002.41 337.4 1000.48 339.328C998.56 341.256 996.31 342.22 993.74 342.22C990.52 342.22 987.95 341.256 986.02 339.328C984.42 337.4 983.61 334.99 983.61 332.098V14.942C983.61 12.05 984.58 9.63998 986.51 7.71198C988.43 5.78397 990.84 4.81995 993.74 4.81995C996.63 4.81995 999.04 5.78397 1000.97 7.71198C1002.89 9.63998 1003.86 12.05 1003.86 14.942V332.098ZM1293.63 325.832C1291.7 323.904 1289.45 322.94 1286.88 322.94H1120.59V14.46C1120.59 11.8893 1119.63 9.63998 1117.7 7.71198C1115.77 5.78397 1113.36 4.81995 1110.47 4.81995C1107.58 4.81995 1105.17 5.78397 1103.24 7.71198C1101.31 9.63998 1100.35 11.8893 1100.35 14.46V332.58C1100.35 335.151 1101.15 337.4 1102.76 339.328C1104.69 341.256 1107.1 342.22 1109.99 342.22H1286.88C1289.45 342.22 1291.7 341.417 1293.63 339.81C1295.56 337.882 1296.52 335.472 1296.52 332.58C1296.52 330.009 1295.56 327.76 1293.63 325.832ZM1543.53 322.94C1546.1 322.94 1548.35 323.904 1550.28 325.832C1552.2 327.76 1553.17 330.009 1553.17 332.58C1553.17 335.472 1552.2 337.882 1550.28 339.81C1548.35 341.417 1546.1 342.22 1543.53 342.22H1361.81C1359.24 342.22 1356.99 341.256 1355.07 339.328C1353.14 337.4 1352.17 335.151 1352.17 332.58V14.46C1352.17 11.8893 1353.14 9.63998 1355.07 7.71198C1356.99 5.78397 1359.24 4.81995 1361.81 4.81995H1543.53C1546.1 4.81995 1548.35 5.78397 1550.28 7.71198C1552.2 9.63998 1553.17 11.8893 1553.17 14.46C1553.17 17.352 1552.2 19.762 1550.28 21.69C1548.35 23.2967 1546.1 24.1 1543.53 24.1H1372.42V158.578H1521.84C1524.41 158.578 1526.66 159.542 1528.59 161.47C1530.51 163.398 1531.48 165.647 1531.48 168.218C1531.48 171.11 1530.51 173.52 1528.59 175.448C1526.66 177.055 1524.41 177.858 1521.84 177.858H1372.42V322.94H1543.53Z" fill="#4A90E2"/>
</svg>
