<svg width="500" height="500" viewBox="0 0 500 500" fill="none" xmlns="http://www.w3.org/2000/svg">
<path fill-rule="evenodd" clip-rule="evenodd" d="M250 500C111.963 500 0 388.137 0 250C0 111.963 111.963 0 250 0C388.137 0 500 111.963 500 250C500 388.137 388.137 500 250 500Z" fill="#4A90E2"/>
<path fill-rule="evenodd" clip-rule="evenodd" d="M346.681 196.642C356.581 213.904 361.884 232.587 362.944 251.269C374.116 248.144 386.349 252.832 392.501 263.346C399.713 275.777 395.4 291.761 383.026 298.935L363.015 264.198C361.035 304.618 339.257 343.263 301.781 365L179.102 151.533C237.79 117.506 312.812 137.681 346.681 196.642ZM185.041 261.001C194.163 276.843 188.718 297.088 172.95 306.252L140 248.854C155.768 239.69 175.92 245.16 185.041 261.001Z" fill="white"/>
</svg>
