<svg width="2426" height="347" viewBox="0 0 2426 347" fill="none" xmlns="http://www.w3.org/2000/svg">
<g clip-path="url(#clip0)">
<path d="M831.538 175.93C834.43 175.93 836.679 176.894 838.286 178.822C840.214 180.75 841.178 182.999 841.178 185.57V306.552C841.178 310.408 839.732 313.3 836.84 315.228C822.059 325.189 805.831 333.062 788.158 338.846C770.806 344.309 753.133 347.04 735.138 347.04C702.041 347.04 672.317 339.649 645.968 324.868C619.94 309.765 599.375 289.039 584.272 262.69C569.491 236.341 562.1 206.617 562.1 173.52C562.1 140.423 569.491 110.699 584.272 84.35C599.375 58.0007 619.94 37.4353 645.968 22.654C672.317 7.55133 702.041 0 735.138 0C753.133 0 770.163 2.24933 786.23 6.748C802.618 10.9253 817.239 17.352 830.092 26.028C832.984 27.956 834.43 30.6873 834.43 34.222C834.43 37.114 833.305 39.524 831.056 41.452C829.128 43.0587 827.2 43.862 825.272 43.862C823.665 43.862 821.577 43.2193 819.006 41.934C792.014 26.8313 764.058 19.28 735.138 19.28C705.575 19.28 679.226 25.8673 656.09 39.042C632.954 52.2167 614.799 70.5327 601.624 93.99C588.771 117.447 582.344 143.957 582.344 173.52C582.344 203.083 588.771 229.593 601.624 253.05C614.799 276.507 632.954 294.823 656.09 307.998C679.226 321.173 705.575 327.76 735.138 327.76C749.919 327.76 764.861 325.511 779.964 321.012C795.388 316.192 809.366 309.926 821.898 302.214V195.21H735.138C732.567 195.21 730.318 194.246 728.39 192.318C726.462 190.39 725.498 188.141 725.498 185.57C725.498 182.678 726.462 180.429 728.39 178.822C730.318 176.894 732.567 175.93 735.138 175.93H831.538Z" fill="white"/>
<path d="M1168.14 329.206C1168.46 330.17 1168.62 331.455 1168.62 333.062C1168.62 335.954 1167.65 338.203 1165.73 339.81C1163.8 341.417 1161.39 342.22 1158.5 342.22C1156.25 342.22 1154.16 341.738 1152.23 340.774C1150.62 339.489 1149.5 337.882 1148.86 335.954L1108.37 236.662L1108.85 237.626H947.38L908.338 335.954C906.731 340.131 903.839 342.22 899.662 342.22C896.77 342.22 894.36 341.417 892.432 339.81C890.825 338.203 889.861 336.275 889.54 334.026C889.219 332.741 889.379 331.134 890.022 329.206L1019.68 10.122C1020.64 7.55134 1021.77 5.94466 1023.05 5.30199C1024.66 4.338 1026.59 3.856 1028.84 3.856C1033.66 3.856 1036.87 5.94467 1038.48 10.122L1168.14 329.206ZM955.092 218.346H1101.14L1027.39 36.632L955.092 218.346Z" fill="white"/>
<path d="M1420.42 322.94C1422.99 322.94 1425.24 323.904 1427.17 325.832C1429.1 327.76 1430.06 330.009 1430.06 332.58C1430.06 335.472 1429.1 337.882 1427.17 339.81C1425.24 341.417 1422.99 342.22 1420.42 342.22H1243.53C1240.64 342.22 1238.23 341.256 1236.3 339.328C1234.69 337.4 1233.89 335.151 1233.89 332.58V14.46C1233.89 11.8893 1234.85 9.64002 1236.78 7.71202C1238.71 5.78401 1241.12 4.81999 1244.01 4.81999C1246.9 4.81999 1249.31 5.78401 1251.24 7.71202C1253.17 9.64002 1254.13 11.8893 1254.13 14.46V322.94H1420.42Z" fill="white"/>
<path d="M1505.96 332.098C1505.64 334.99 1504.51 337.4 1502.58 339.328C1500.66 341.256 1498.41 342.22 1495.84 342.22C1492.62 342.22 1490.05 341.256 1488.12 339.328C1486.52 337.4 1485.71 334.99 1485.71 332.098V14.942C1485.71 12.05 1486.68 9.64002 1488.61 7.71202C1490.53 5.78401 1492.94 4.81999 1495.84 4.81999C1498.73 4.81999 1501.14 5.78401 1503.07 7.71202C1504.99 9.64002 1505.96 12.05 1505.96 14.942V332.098Z" fill="white"/>
<path d="M1788.98 322.94C1791.55 322.94 1793.8 323.904 1795.73 325.832C1797.66 327.76 1798.62 330.009 1798.62 332.58C1798.62 335.472 1797.66 337.882 1795.73 339.81C1793.8 341.417 1791.55 342.22 1788.98 342.22H1612.09C1609.2 342.22 1606.79 341.256 1604.86 339.328C1603.25 337.4 1602.45 335.151 1602.45 332.58V14.46C1602.45 11.8893 1603.41 9.64002 1605.34 7.71202C1607.27 5.78401 1609.68 4.81999 1612.57 4.81999C1615.46 4.81999 1617.87 5.78401 1619.8 7.71202C1621.73 9.64002 1622.69 11.8893 1622.69 14.46V322.94H1788.98Z" fill="white"/>
<path d="M2045.63 322.94C2048.2 322.94 2050.45 323.904 2052.38 325.832C2054.3 327.76 2055.27 330.009 2055.27 332.58C2055.27 335.472 2054.3 337.882 2052.38 339.81C2050.45 341.417 2048.2 342.22 2045.63 342.22H1863.91C1861.34 342.22 1859.09 341.256 1857.17 339.328C1855.24 337.4 1854.27 335.151 1854.27 332.58V14.46C1854.27 11.8893 1855.24 9.64002 1857.17 7.71202C1859.09 5.78401 1861.34 4.81999 1863.91 4.81999H2045.63C2048.2 4.81999 2050.45 5.78401 2052.38 7.71202C2054.3 9.64002 2055.27 11.8893 2055.27 14.46C2055.27 17.352 2054.3 19.762 2052.38 21.69C2050.45 23.2967 2048.2 24.1 2045.63 24.1H1874.52V158.578H2023.94C2026.51 158.578 2028.76 159.542 2030.69 161.47C2032.61 163.398 2033.58 165.647 2033.58 168.218C2033.58 171.11 2032.61 173.52 2030.69 175.448C2028.76 177.055 2026.51 177.858 2023.94 177.858H1874.52V322.94H2045.63Z" fill="white"/>
<path d="M2425.63 173.52C2425.63 207.26 2418.72 237.305 2404.9 263.654C2391.41 290.003 2372.45 310.569 2348.03 325.35C2323.61 339.81 2295.81 347.04 2264.64 347.04C2233.47 347.04 2205.68 339.81 2181.25 325.35C2156.83 310.569 2137.71 290.003 2123.9 263.654C2110.4 237.305 2103.65 207.26 2103.65 173.52C2103.65 139.78 2110.4 109.735 2123.9 83.386C2137.71 57.0367 2156.83 36.632 2181.25 22.172C2205.68 7.39066 2233.47 0 2264.64 0C2295.81 0 2323.61 7.39066 2348.03 22.172C2372.45 36.632 2391.41 57.0367 2404.9 83.386C2418.72 109.735 2425.63 139.78 2425.63 173.52ZM2405.38 173.52C2405.38 143.315 2399.44 116.483 2387.55 93.026C2375.66 69.5687 2358.95 51.4133 2337.42 38.56C2316.21 25.7067 2291.95 19.28 2264.64 19.28C2237.33 19.28 2212.91 25.7067 2191.38 38.56C2170.17 51.4133 2153.62 69.5687 2141.73 93.026C2129.84 116.483 2123.9 143.315 2123.9 173.52C2123.9 203.725 2129.84 230.557 2141.73 254.014C2153.62 277.471 2170.17 295.627 2191.38 308.48C2212.91 321.333 2237.33 327.76 2264.64 327.76C2291.95 327.76 2316.21 321.333 2337.42 308.48C2358.95 295.627 2375.66 277.471 2387.55 254.014C2399.44 230.557 2405.38 203.725 2405.38 173.52Z" fill="white"/>
<path d="M315.383 175.727C313.917 149.456 306.432 123.123 292.378 98.7789C244.467 15.7952 138.356 -12.6371 55.3723 35.2735L228.872 335.784C281.89 305.174 312.641 250.808 315.441 193.895L343.692 242.825C361.241 232.693 367.254 210.253 357.122 192.704C348.548 177.854 331.162 171.264 315.383 175.727Z" fill="#4A91DC"/>
<path d="M46.656 253.084C68.9712 240.2 76.617 211.666 63.7333 189.351C50.8496 167.036 22.3152 159.39 0 172.274L46.656 253.084Z" fill="#4A91DC"/>
</g>
<defs>
<clipPath id="clip0">
<rect width="2426" height="347" fill="white"/>
</clipPath>
</defs>
</svg>
