<?xml version="1.0" encoding="utf-8"?>
<!-- Generator: Adobe Illustrator 23.0.1, SVG Export Plug-In . SVG Version: 6.00 Build 0)  -->
<svg version="1.1" id="Layer_1" xmlns="http://www.w3.org/2000/svg" xmlns:xlink="http://www.w3.org/1999/xlink" x="0px" y="0px"
	 viewBox="0 0 2426 347" style="enable-background:new 0 0 2426 347;" xml:space="preserve">
<style type="text/css">
	.st0{clip-path:url(#SVGID_2_);}
	.st1{fill:#4A91DC;}
</style>
<g>
	<defs>
		<rect id="SVGID_1_" width="2426" height="347"/>
	</defs>
	<clipPath id="SVGID_2_">
		<use xlink:href="#SVGID_1_"  style="overflow:visible;"/>
	</clipPath>
	<g class="st0">
		<path d="M831.5,175.9c2.9,0,5.1,1,6.7,2.9c1.9,1.9,2.9,4.2,2.9,6.7v121c0,3.9-1.4,6.7-4.3,8.7c-14.8,10-31,17.8-48.7,23.6
			c-17.4,5.5-35,8.2-53,8.2c-33.1,0-62.8-7.4-89.2-22.2c-26-15.1-46.6-35.8-61.7-62.2c-14.8-26.3-22.2-56.1-22.2-89.2
			s7.4-62.8,22.2-89.2C599.4,58,619.9,37.4,646,22.7C672.3,7.6,702,0,735.1,0c18,0,35,2.2,51.1,6.7c16.4,4.2,31,10.6,43.9,19.3
			c2.9,1.9,4.3,4.7,4.3,8.2c0,2.9-1.1,5.3-3.4,7.2c-1.9,1.6-3.9,2.4-5.8,2.4c-1.6,0-3.7-0.6-6.3-1.9c-27-15.1-54.9-22.7-83.9-22.7
			c-29.6,0-55.9,6.6-79,19.8C633,52.2,614.8,70.5,601.6,94c-12.9,23.5-19.3,50-19.3,79.5s6.4,56.1,19.3,79.5
			c13.2,23.5,31.3,41.8,54.5,54.9c23.1,13.2,49.5,19.8,79,19.8c14.8,0,29.7-2.2,44.8-6.7c15.4-4.8,29.4-11.1,41.9-18.8v-107h-86.8
			c-2.6,0-4.8-1-6.7-2.9c-1.9-1.9-2.9-4.2-2.9-6.7c0-2.9,1-5.1,2.9-6.7c1.9-1.9,4.2-2.9,6.7-2.9H831.5z"/>
		<path d="M1168.1,329.2c0.3,1,0.5,2.2,0.5,3.9c0,2.9-1,5.1-2.9,6.7c-1.9,1.6-4.3,2.4-7.2,2.4c-2.3,0-4.3-0.5-6.3-1.4
			c-1.6-1.3-2.7-2.9-3.4-4.8l-40.5-99.3l0.5,1H947.4l-39,98.3c-1.6,4.2-4.5,6.3-8.7,6.3c-2.9,0-5.3-0.8-7.2-2.4
			c-1.6-1.6-2.6-3.5-2.9-5.8c-0.3-1.3-0.2-2.9,0.5-4.8l129.7-319.1c1-2.6,2.1-4.2,3.4-4.8c1.6-1,3.5-1.4,5.8-1.4
			c4.8,0,8,2.1,9.6,6.3L1168.1,329.2z M955.1,218.3h146l-73.8-181.7L955.1,218.3z"/>
		<path d="M1420.4,322.9c2.6,0,4.8,1,6.8,2.9c1.9,1.9,2.9,4.2,2.9,6.7c0,2.9-1,5.3-2.9,7.2c-1.9,1.6-4.2,2.4-6.8,2.4h-176.9
			c-2.9,0-5.3-1-7.2-2.9c-1.6-1.9-2.4-4.2-2.4-6.7V14.5c0-2.6,1-4.8,2.9-6.7c1.9-1.9,4.3-2.9,7.2-2.9s5.3,1,7.2,2.9
			c1.9,1.9,2.9,4.2,2.9,6.7v308.5H1420.4z"/>
		<path d="M1506,332.1c-0.3,2.9-1.4,5.3-3.4,7.2c-1.9,1.9-4.2,2.9-6.7,2.9c-3.2,0-5.8-1-7.7-2.9c-1.6-1.9-2.4-4.3-2.4-7.2V14.9
			c0-2.9,1-5.3,2.9-7.2c1.9-1.9,4.3-2.9,7.2-2.9c2.9,0,5.3,1,7.2,2.9c1.9,1.9,2.9,4.3,2.9,7.2V332.1z"/>
		<path d="M1789,322.9c2.6,0,4.8,1,6.8,2.9c1.9,1.9,2.9,4.2,2.9,6.7c0,2.9-1,5.3-2.9,7.2c-1.9,1.6-4.2,2.4-6.8,2.4h-176.9
			c-2.9,0-5.3-1-7.2-2.9c-1.6-1.9-2.4-4.2-2.4-6.7V14.5c0-2.6,1-4.8,2.9-6.7c1.9-1.9,4.3-2.9,7.2-2.9c2.9,0,5.3,1,7.2,2.9
			c1.9,1.9,2.9,4.2,2.9,6.7v308.5H1789z"/>
		<path d="M2045.6,322.9c2.6,0,4.8,1,6.7,2.9c1.9,1.9,2.9,4.2,2.9,6.7c0,2.9-1,5.3-2.9,7.2c-1.9,1.6-4.2,2.4-6.7,2.4h-181.7
			c-2.6,0-4.8-1-6.7-2.9c-1.9-1.9-2.9-4.2-2.9-6.7V14.5c0-2.6,1-4.8,2.9-6.7c1.9-1.9,4.2-2.9,6.7-2.9h181.7c2.6,0,4.8,1,6.7,2.9
			c1.9,1.9,2.9,4.2,2.9,6.7c0,2.9-1,5.3-2.9,7.2c-1.9,1.6-4.2,2.4-6.7,2.4h-171.1v134.5h149.4c2.6,0,4.8,1,6.8,2.9
			c1.9,1.9,2.9,4.2,2.9,6.7c0,2.9-1,5.3-2.9,7.2c-1.9,1.6-4.2,2.4-6.8,2.4h-149.4v145.1H2045.6z"/>
		<path d="M2425.6,173.5c0,33.7-6.9,63.8-20.7,90.1c-13.5,26.3-32.4,46.9-56.9,61.7c-24.4,14.5-52.2,21.7-83.4,21.7
			c-31.2,0-59-7.2-83.4-21.7c-24.4-14.8-43.5-35.3-57.4-61.7c-13.5-26.3-20.3-56.4-20.3-90.1s6.8-63.8,20.3-90.1
			c13.8-26.3,32.9-46.8,57.4-61.2C2205.7,7.4,2233.5,0,2264.6,0c31.2,0,59,7.4,83.4,22.2c24.4,14.5,43.4,34.9,56.9,61.2
			C2418.7,109.7,2425.6,139.8,2425.6,173.5z M2405.4,173.5c0-30.2-5.9-57-17.8-80.5c-11.9-23.5-28.6-41.6-50.1-54.5
			c-21.2-12.9-45.5-19.3-72.8-19.3c-27.3,0-51.7,6.4-73.3,19.3c-21.2,12.9-37.8,31-49.6,54.5c-11.9,23.5-17.8,50.3-17.8,80.5
			s5.9,57,17.8,80.5c11.9,23.5,28.4,41.6,49.6,54.5c21.5,12.9,46,19.3,73.3,19.3c27.3,0,51.6-6.4,72.8-19.3
			c21.5-12.9,38.2-31,50.1-54.5C2399.4,230.6,2405.4,203.7,2405.4,173.5z"/>
		<path class="st1" d="M315.4,175.7c-1.5-26.3-9-52.6-23-76.9c-47.9-83-154-111.4-237-63.5l173.5,300.5c53-30.6,83.8-85,86.6-141.9
			l28.3,48.9c17.5-10.1,23.6-32.6,13.4-50.1C348.5,177.9,331.2,171.3,315.4,175.7z"/>
		<path class="st1" d="M46.7,253.1c22.3-12.9,30-41.4,17.1-63.7s-41.4-30-63.7-17.1L46.7,253.1z"/>
	</g>
</g>
</svg>
